<svg width="794" height="440" viewBox="0 0 794 440" fill="none" xmlns="http://www.w3.org/2000/svg">
<g clip-path="url(#clip0)">
<path opacity="0.8" d="M406.135 289.985C404.284 307.267 401.111 325.498 388.484 338.931C387.022 340.476 385.473 341.937 383.844 343.307C375.289 350.505 364.514 355.659 354.214 360.998C315.013 381.259 279.209 406.82 237.8 423.601C196.39 440.382 146.44 447.448 105.718 429.467C83.2412 419.554 65.6434 402.931 50.7561 385.24C39.7233 372.265 30.0273 358.217 21.8144 343.307C12.071 325.844 5.33594 306.875 1.88971 287.19C-3.98061 251.598 3.6746 213.567 27.4071 184.117C40.5095 167.863 57.9486 154.655 72.1616 139.139C101.54 107.067 116.586 65.7399 149.983 36.7915C189.303 2.64929 298.909 -23.6758 329.451 33.3114C344.536 61.5084 332.452 95.5452 343.994 124.784C356.779 157.159 387.189 181.718 400.106 214.12C409.731 238.257 408.911 264.556 406.135 289.985Z" fill="black"/>
<path opacity="0.25" d="M84.6436 317.22V260.918L137.357 231.297L220.044 252.231L329.465 185.739L329.174 318.235L84.6436 317.22Z" fill="#FEE600"/>
<path d="M89.6942 256.265L137.186 230.572L220.044 252.231L329.676 186.754" stroke="#FEE600" stroke-width="2.71" stroke-miterlimit="10" stroke-linecap="round"/>
<path d="M74.1987 319.579H338.27C338.621 319.579 338.957 319.44 339.205 319.193C339.453 318.946 339.592 318.611 339.592 318.261C339.592 317.911 339.453 317.576 339.205 317.329C338.957 317.082 338.621 316.943 338.27 316.943H76.9223V171.133C76.9223 170.783 76.783 170.448 76.535 170.201C76.2871 169.954 75.9508 169.815 75.6001 169.815C75.2495 169.815 74.9132 169.954 74.6652 170.201C74.4173 170.448 74.278 170.783 74.278 171.133L74.1987 319.579Z" fill="#FEE600"/>
<path opacity="0.5" d="M383.884 343.308C375.33 350.505 364.554 355.659 354.255 360.998C315.014 381.26 279.21 406.82 237.801 423.601C196.391 440.382 146.441 447.448 105.719 429.467C83.2421 419.554 65.6444 402.931 50.7571 385.241C39.7243 372.266 30.0283 358.217 21.8154 343.308H383.884Z" fill="#302922"/>
<path opacity="0.43" d="M308.297 354.42C308.297 362.778 261.89 369.527 204.641 369.527C147.393 369.527 100.985 362.778 100.985 354.42C100.985 350.031 113.903 346.063 134.515 343.308H274.794C295.406 346.063 308.297 350.031 308.297 354.42Z" fill="#FEE600"/>
<path d="M188.723 211.049L184.029 341.343L199.26 342.767L209.718 245.771L217.334 343.65L234.35 341.884L231.507 211.853L188.723 211.049Z" fill="#3F3D56"/>
<path d="M188.723 211.049L184.029 341.343L199.26 342.767L209.718 245.771L217.334 343.65L234.35 341.884L231.507 211.853L188.723 211.049Z" fill="url(#paint0_linear)"/>
<path d="M257.884 173.559C257.958 174.666 257.755 175.774 257.293 176.784C256.832 177.794 256.126 178.674 255.24 179.346C253.111 180.914 249.951 179.477 246.593 176.986C242.759 173.84 239.264 170.305 236.161 166.44C235.143 165.188 234.522 164.371 234.522 164.371L232.036 133.432L254.605 163.751L255.081 164.384C256.681 167.199 257.638 170.332 257.884 173.559Z" fill="#FEE600"/>
<path d="M192.093 132.179C190.959 132.463 189.914 133.025 189.052 133.814C188.225 134.941 187.764 136.293 187.73 137.689C186.262 149.725 187.294 161.905 188.325 173.993C189.277 185.304 186.461 196.272 187.426 207.582C187.421 208.426 187.635 209.257 188.047 209.994C188.47 210.627 192.939 211.313 193.627 211.695C197.104 213.369 201.07 213.633 204.931 213.778C211.542 214.015 218.153 214.028 224.843 214.028C226.829 213.816 228.741 213.158 230.435 212.104C233 210.667 233.463 208.478 233.979 205.592C235.489 197.231 236.236 188.75 236.213 180.255C236.213 173.941 235.763 167.587 236.636 161.325C237.218 157.107 234.838 134.486 231.903 133.141C219.541 127.539 204.164 128.027 192.093 132.179Z" fill="#FEE600"/>
<path d="M233.649 208.123C233.486 209.016 233.127 209.863 232.596 210.602C232.066 211.34 231.378 211.952 230.582 212.394C228.885 213.441 226.973 214.094 224.989 214.305C218.378 214.305 211.768 214.305 205.078 214.042C201.217 213.91 197.25 213.646 193.76 211.972C193.086 211.642 188.604 210.891 188.194 210.258C187.781 209.526 187.567 208.699 187.572 207.859C186.607 196.535 189.437 185.581 188.471 174.27L188.075 169.591C187.215 159.045 186.607 148.499 187.876 137.953C187.947 136.792 188.267 135.659 188.815 134.631C188.901 134.469 189.008 134.318 189.133 134.183L189.212 134.091C190.759 136.253 191.38 147.273 191.631 155.499C191.392 157.246 191.344 159.014 191.486 160.772C191.83 163.342 193.072 163.408 193.747 171.318C194.712 182.628 188.789 189.957 189.78 201.268C190.396 202.943 191.198 204.544 192.173 206.04C194.398 208.046 196.752 209.904 199.22 211.603C202.698 213.264 211.437 213.172 215.298 213.33C221.908 213.567 226.06 208.215 232.697 208.228C233.017 208.225 233.336 208.19 233.649 208.123Z" fill="url(#paint1_linear)"/>
<path d="M205.276 126.84C204.653 128.173 204.341 129.629 204.364 131.098C204.61 132.437 205.316 133.649 206.36 134.526C207.957 135.943 209.94 136.857 212.057 137.153C214.175 137.448 216.333 137.112 218.259 136.187C219.499 135.645 220.484 134.649 221.009 133.405C221.288 132.091 221.215 130.727 220.798 129.451C220.327 127.284 220.074 125.076 220.044 122.859C220.123 121.647 219.994 120.43 219.661 119.261C219.13 118.116 218.256 117.164 217.16 116.536C216.063 115.908 214.798 115.635 213.539 115.754C211.675 115.846 207.484 116.954 206.532 118.746C206.056 119.669 206.4 121.937 206.228 123.031C206.023 124.326 205.704 125.601 205.276 126.84Z" fill="#F7AD7E"/>
<path d="M206.558 118.588C206.558 118.588 205.236 125.997 208.832 129.134C212.429 132.272 219.41 131.085 220.176 128.08C220.943 125.074 219.462 117.296 219.462 117.296L206.558 118.588Z" fill="url(#paint2_linear)"/>
<path d="M226.06 115.411C223.878 121.831 217.995 125.812 213.87 126.181C209.745 126.55 205.263 122.82 203.451 118.14C201.64 113.46 201.402 95.5324 201.402 95.5324C201.35 94.3386 201.586 93.1499 202.089 92.0655C202.658 90.7472 203.716 86.7925 205.13 85.7116C211.674 84.0105 218.563 84.1565 225.029 86.1334C226.351 87.3198 227.091 91.1163 227.395 91.815C227.539 92.242 227.633 92.6845 227.673 93.1332C228.228 97.457 227.99 109.809 226.06 115.411Z" fill="#F7AD7E"/>
<path d="M201.204 100.331C200.776 100.055 200.261 99.9472 199.758 100.028C199.255 100.108 198.8 100.371 198.48 100.766C198.223 101.289 198.122 101.874 198.189 102.453C198.185 103.036 198.234 103.619 198.335 104.193C198.679 105.73 199.454 107.138 200.569 108.253C200.832 108.55 201.14 108.803 201.481 109.005C201.656 109.104 201.85 109.167 202.05 109.187C202.251 109.207 202.453 109.186 202.645 109.123C202.935 108.953 203.177 108.713 203.35 108.425C203.523 108.137 203.622 107.811 203.636 107.476C203.872 106.039 203.745 104.566 203.266 103.191C202.898 102.045 202.176 101.044 201.204 100.331Z" fill="#F7AD7E"/>
<path d="M228.479 100.093C228.907 99.8179 229.422 99.7099 229.925 99.7903C230.428 99.8706 230.883 100.134 231.203 100.528C231.458 101.052 231.559 101.637 231.494 102.216C231.492 102.799 231.443 103.381 231.349 103.956C231.008 105.494 230.232 106.903 229.114 108.016C228.851 108.316 228.544 108.574 228.202 108.781C228.026 108.878 227.832 108.938 227.631 108.956C227.431 108.974 227.229 108.95 227.038 108.886C226.746 108.718 226.502 108.479 226.328 108.19C226.155 107.902 226.058 107.574 226.047 107.238C225.811 105.802 225.939 104.329 226.417 102.954C226.786 101.808 227.507 100.807 228.479 100.093Z" fill="#F7AD7E"/>
<path d="M227.871 100.779C227.871 100.489 227.766 100.199 227.699 99.9089C227.322 98.3786 226.813 96.8835 226.179 95.4401L223.204 88.0976L222.728 86.9507C222.734 86.9247 222.734 86.8977 222.728 86.8716C222.739 86.8871 222.745 86.9055 222.745 86.9243C222.745 86.9432 222.739 86.9616 222.728 86.9771C222.57 87.1492 222.37 87.2766 222.146 87.3462C220.8 87.8506 219.416 88.2516 218.008 88.5458C216.176 88.7971 214.311 88.6624 212.534 88.1503C211.014 87.7153 209.454 86.4234 207.828 86.4893H207.59C206.761 86.5254 205.969 86.8432 205.346 87.39C204.723 87.9367 204.306 88.6795 204.165 89.4949C203.845 93.4634 202.987 97.3702 201.614 101.109C199.868 99.9353 199.683 97.602 199.67 95.5851C199.657 93.5682 199.67 91.3931 199.67 89.2972C199.604 88.2872 199.721 87.2738 200.014 86.3048C200.179 85.8069 200.471 85.3598 200.86 85.0066C201.249 84.6534 201.722 84.4059 202.235 84.2879C203.081 84.1429 204.046 84.4197 204.76 83.9583C205.031 83.7148 205.248 83.4182 205.398 83.0869C205.548 82.7557 205.628 82.3971 205.633 82.0337C205.778 80.5569 206.327 79.1481 207.219 77.9604C209.216 75.6271 213.024 75.4689 216.038 76.4576C219.053 77.4462 221.644 79.2918 224.592 80.4123C226.589 81.1768 228.889 81.7305 230.172 83.3519C230.784 84.2354 231.174 85.2527 231.309 86.318C231.743 88.8349 231.663 91.4135 231.072 93.8986C230.481 96.3837 229.392 98.7241 227.871 100.779Z" fill="#3F3D56"/>
<path d="M191.711 157.318C191.81 161.687 190.539 165.977 188.075 169.591C187.916 169.841 187.744 170.078 187.572 170.316C184.029 175.048 179.137 181.705 176.4 185.884C175.176 187.852 173.315 189.344 171.125 190.114C168.935 190.883 166.546 190.884 164.356 190.116C155.497 183.775 165.069 169.986 165.77 167.521C166.471 165.056 185.761 138.823 188.815 134.644C188.815 134.644 189.08 134.288 189.132 134.196L189.212 134.104C190.759 136.266 191.38 147.286 191.631 155.512C191.684 156.132 191.697 156.738 191.711 157.318Z" fill="#FEE600"/>
<path d="M293.027 155.842C292.313 156.448 269.4 176.116 259.775 179.688C253.164 182.114 248.589 180.334 246.619 177.052C245.648 175.38 245.297 173.42 245.628 171.515C245.681 171.212 245.756 170.912 245.852 170.619C247.108 166.506 252.199 164.502 254.631 163.777C255.425 163.527 255.954 163.421 255.954 163.421L285.702 146.825L293.027 155.842Z" fill="#FEE600"/>
<path d="M205.276 126.775L212.971 137.584L204.535 140.959L202.803 129.569L205.276 126.775Z" fill="#FF8500"/>
<path d="M205.276 126.775L212.971 137.584L204.535 140.959L202.803 129.569L205.276 126.775Z" fill="#FEE600"/>
<path d="M205.276 126.775L212.971 137.584L204.535 140.959L202.803 129.569L205.276 126.775Z" fill="url(#paint3_linear)"/>
<path d="M220.735 127L213 137.177L220.774 140.775L222.771 130.085L220.735 127Z" fill="#FEE600"/>
<path d="M220.735 127L213 137.177L220.774 140.775L222.771 130.085L220.735 127Z" fill="url(#paint4_linear)"/>
<path d="M164.475 190.458L199.776 190.102L201.019 177.513L167.33 174.877C167.33 174.877 156.991 183.63 164.475 190.458Z" fill="#FEE600"/>
<path d="M303.59 148.631C306.34 147.009 309.633 145.994 311.523 143.477C311.691 143.277 311.813 143.043 311.88 142.791C312.012 142.013 311.193 141.473 310.466 141.143C308.596 140.531 306.642 140.21 304.675 140.194C301.851 139.962 299.011 140.069 296.213 140.511C291.466 141.407 286.059 144.716 286.336 150.173C286.601 155.275 291.77 155.842 295.591 154.036C298.527 152.651 300.827 150.265 303.59 148.631Z" fill="#F7AD7E"/>
<path d="M208.832 139.245L210.247 142.778L207.418 202.665L210.961 212.908L216.62 202.309L213.262 144.017L215.205 138.625L212.971 137.584L208.832 139.245Z" fill="url(#paint5_linear)"/>
<path d="M293.027 155.842C292.313 156.448 269.4 176.116 259.775 179.688C253.164 182.114 248.589 180.334 246.619 177.052C242.786 173.905 239.29 170.371 236.188 166.506L235.394 158.597C238.622 162.837 242.115 166.87 245.852 170.672C248.682 173.453 251.445 175.602 253.204 175.549C254.869 175.207 256.462 174.578 257.91 173.69C268.329 168.246 290.422 152.757 290.422 152.757L293.027 155.842Z" fill="url(#paint6_linear)"/>
<path d="M174.602 346.168C173.767 346.596 173.111 347.306 172.751 348.172C172.625 348.758 172.673 349.368 172.889 349.928C173.105 350.487 173.48 350.972 173.968 351.322C174.917 351.95 176.017 352.315 177.154 352.377C183.223 353.168 189.318 352.377 195.333 351.507C196.161 351.462 196.961 351.193 197.647 350.729C198.173 350.233 198.564 349.611 198.784 348.923C199.662 346.676 200.032 344.264 199.868 341.858C199.898 341.191 199.771 340.527 199.498 339.919C199.225 339.31 198.813 338.773 198.295 338.351C197.793 338.101 197.242 337.966 196.682 337.956C193.191 337.679 188.947 337.507 185.655 338.905C181.808 340.566 178.132 343.822 174.602 346.168Z" fill="#3F3D56"/>
<path d="M242.785 346.168C243.621 346.596 244.277 347.306 244.636 348.172C244.762 348.758 244.715 349.368 244.498 349.928C244.282 350.487 243.908 350.972 243.42 351.322C242.471 351.95 241.371 352.315 240.233 352.377C234.165 353.168 228.07 352.377 222.041 351.507C221.217 351.46 220.422 351.191 219.74 350.729C219.214 350.233 218.823 349.611 218.603 348.923C217.719 346.678 217.349 344.264 217.519 341.858C217.489 341.191 217.616 340.527 217.889 339.919C218.162 339.31 218.574 338.773 219.092 338.351C219.59 338.103 220.136 337.968 220.692 337.956C224.196 337.679 228.44 337.507 231.719 338.905C235.579 340.566 239.242 343.822 242.785 346.168Z" fill="#3F3D56"/>
<path d="M218.59 183.01C219.421 182.608 220.146 182.017 220.705 181.284C220.976 180.911 221.116 180.46 221.104 180C221.092 179.54 220.929 179.097 220.639 178.739C220.314 178.489 219.942 178.305 219.545 178.198C219.147 178.092 218.733 178.065 218.325 178.12H213.407C212.397 178.184 211.383 178.059 210.419 177.751C209.621 177.283 208.756 176.941 207.854 176.736C205.977 176.657 204.959 178.924 203.306 179.86C202.65 180.117 202.036 180.468 201.481 180.901C200.331 182.127 200.966 184.605 201.944 185.765C202.399 186.211 202.95 186.547 203.555 186.748C204.16 186.949 204.803 187.01 205.435 186.926C210.09 186.806 214.63 185.454 218.59 183.01Z" fill="#F7AD7E"/>
<path d="M137.357 235.608C139.745 235.608 141.681 233.678 141.681 231.297C141.681 228.917 139.745 226.987 137.357 226.987C134.97 226.987 133.034 228.917 133.034 231.297C133.034 233.678 134.97 235.608 137.357 235.608Z" fill="white" stroke="#FEE600" stroke-width="1.59" stroke-miterlimit="10" stroke-linecap="round"/>
<path d="M329.465 190.05C331.852 190.05 333.788 188.12 333.788 185.739C333.788 183.358 331.852 181.428 329.465 181.428C327.077 181.428 325.141 183.358 325.141 185.739C325.141 188.12 327.077 190.05 329.465 190.05Z" fill="white" stroke="#FEE600" stroke-width="1.59" stroke-miterlimit="10" stroke-linecap="round"/>
<path d="M88.5042 260.918C90.892 260.918 92.8276 258.988 92.8276 256.607C92.8276 254.227 90.892 252.297 88.5042 252.297C86.1165 252.297 84.1808 254.227 84.1808 256.607C84.1808 258.988 86.1165 260.918 88.5042 260.918Z" fill="white" stroke="#FEE600" stroke-width="1.59" stroke-miterlimit="10" stroke-linecap="round"/>
</g>
<line x1="332.308" y1="183.574" x2="366.308" y2="160.959" stroke="#FEE600" stroke-width="2.5"/>
<line x1="365.308" y1="161.574" x2="399.308" y2="138.959" stroke="#332E00" stroke-width="2.5"/>
<line x1="405" y1="136.75" x2="794" y2="136.75" stroke="black" stroke-width="2.5"/>
<path d="M406.25 137.929C406.25 140.228 404.357 142.109 402 142.109C399.643 142.109 397.75 140.228 397.75 137.929C397.75 135.631 399.643 133.75 402 133.75C404.357 133.75 406.25 135.631 406.25 137.929Z" fill="white" stroke="black" stroke-width="1.5"/>
<defs>
<linearGradient id="paint0_linear" x1="213.354" y1="159.783" x2="209.122" y2="345.286" gradientUnits="userSpaceOnUse">
<stop offset="0.01"/>
<stop offset="0.83" stop-opacity="0.07"/>
<stop offset="1" stop-opacity="0"/>
</linearGradient>
<linearGradient id="paint1_linear" x1="9913.83" y1="16627.8" x2="10329.7" y2="7887.92" gradientUnits="userSpaceOnUse">
<stop offset="0.01"/>
<stop offset="0.83" stop-opacity="0.07"/>
<stop offset="1" stop-opacity="0"/>
</linearGradient>
<linearGradient id="paint2_linear" x1="3161.68" y1="1317.13" x2="3253.01" y2="1632.27" gradientUnits="userSpaceOnUse">
<stop offset="0.01"/>
<stop offset="0.83" stop-opacity="0.07"/>
<stop offset="1" stop-opacity="0"/>
</linearGradient>
<linearGradient id="paint3_linear" x1="207.887" y1="126.775" x2="207.887" y2="140.959" gradientUnits="userSpaceOnUse">
<stop stop-opacity="0.26"/>
<stop offset="1" stop-opacity="0"/>
</linearGradient>
<linearGradient id="paint4_linear" x1="223" y1="131" x2="213" y2="137" gradientUnits="userSpaceOnUse">
<stop stop-opacity="0.19"/>
<stop offset="1" stop-opacity="0"/>
</linearGradient>
<linearGradient id="paint5_linear" x1="1563.71" y1="8280.85" x2="2898.34" y2="8579.44" gradientUnits="userSpaceOnUse">
<stop offset="0.01"/>
<stop offset="0.83" stop-opacity="0.07"/>
<stop offset="1" stop-opacity="0"/>
</linearGradient>
<linearGradient id="paint6_linear" x1="248.417" y1="202.125" x2="269.302" y2="142.199" gradientUnits="userSpaceOnUse">
<stop offset="0.01"/>
<stop offset="0.48" stop-opacity="0.07"/>
<stop offset="1" stop-opacity="0"/>
</linearGradient>
<clipPath id="clip0">
<rect width="408" height="440" fill="white"/>
</clipPath>
</defs>
</svg>
